<svg xmlns="http://www.w3.org/2000/svg" width="50" height="50" viewBox="0 0 50 50"><g fill="#181616"><path fill-rule="evenodd" d="M25 .9a24.7 24.7 0 0 0-7.8 48.2 1.3 1.3 0 0 0 1.7-1.2c0-.6 0-2.6-.1-4.6-6.8 1.5-8.3-2.9-8.3-2.9-1.1-2.9-2.7-3.7-2.7-3.7-2.3-1.5.1-1.5.1-1.5a5.3 5.3 0 0 1 3.8 2.6c2.2 3.8 5.8 2.7 7.2 2a5.4 5.4 0 0 1 1.6-3.3C15 35.9 9.2 33.8 9.2 24.3a9.4 9.4 0 0 1 2.6-6.6 8.9 8.9 0 0 1 .2-6.6s2.1-.6 6.8 2.6a25.8 25.8 0 0 1 6.2-.9 25.8 25.8 0 0 1 6.2.9c4.7-3.2 6.8-2.6 6.8-2.6a8.9 8.9 0 0 1 .2 6.6 9.4 9.4 0 0 1 2.6 6.6c0 9.5-5.8 11.6-11.3 12.2a6 6 0 0 1 1.7 4.6c0 3.3-.1 6-.1 6.8a1.3 1.3 0 0 0 1.7 1.2A24.7 24.7 0 0 0 25 .9z"/><path d="M9.6 36.4c0 .1-.2.1-.4.1s-.3-.3-.2-.4.2-.2.4-.1.3.3.2.4zm1 1.1c-.1.1-.3.1-.5-.1s-.2-.4 0-.5.3-.1.5.1.2.4 0 .5zm1 1.4c-.1.1-.4 0-.5-.2s-.2-.5 0-.6.4 0 .5.2.2.5 0 .6zm1.4 1.4a.6.6 0 0 1-.7-.1c-.2-.2-.3-.5-.1-.6s.4-.1.6.1.3.4.2.6zm1.8.8a.4.4 0 0 1-.6.2c-.3-.1-.5-.3-.4-.5s.3-.3.6-.2.5.3.4.5zm2 .1a.5.5 0 0 1-.5.4c-.3 0-.5-.1-.5-.3a.5.5 0 0 1 .5-.4c.3 0 .5.1.5.3zm1.9-.3c0 .2-.2.4-.5.5s-.5-.1-.5-.3.1-.4.4-.4.6 0 .6.2zm0 0"/></g></svg>