<svg xmlns="http://www.w3.org/2000/svg" width="50" height="50" viewBox="0 0 50 50"><path d="M25 .5H14.9A19.6 19.6 0 0 0 9 1.8 12 12 0 0 0 1.8 9a19.6 19.6 0 0 0-1.2 5.9C.5 17.5.5 18.3.5 25s0 7.5.1 10.1A19.6 19.6 0 0 0 1.8 41 12 12 0 0 0 9 48.2a19.6 19.6 0 0 0 5.9 1.2h20.2a19.6 19.6 0 0 0 5.9-1.2 12 12 0 0 0 7.2-7.2 19.6 19.6 0 0 0 1.2-5.9c.1-2.6.1-3.4.1-10.1s0-7.5-.1-10.1A19.6 19.6 0 0 0 48.2 9 12 12 0 0 0 41 1.8 19.6 19.6 0 0 0 35.1.6zm0 4.4c6.5 0 7.3 0 9.9.2a13.8 13.8 0 0 1 4.5.8 7.5 7.5 0 0 1 4.7 4.7 13.8 13.8 0 0 1 .8 4.5c.2 2.6.2 3.4.2 9.9s0 7.3-.2 9.9a13.8 13.8 0 0 1-.8 4.5 7.5 7.5 0 0 1-4.7 4.7 13.8 13.8 0 0 1-4.5.8c-2.6.2-3.4.2-9.9.2s-7.3 0-9.9-.2a13.8 13.8 0 0 1-4.5-.8 7.5 7.5 0 0 1-4.7-4.7 13.8 13.8 0 0 1-.8-4.5c-.2-2.6-.2-3.4-.2-9.9s0-7.3.2-9.9a13.8 13.8 0 0 1 .8-4.5 7.5 7.5 0 0 1 4.7-4.7 13.8 13.8 0 0 1 4.5-.8c2.6-.2 3.4-.2 9.9-.2"/><path d="M25 33.2a8.2 8.2 0 1 1 8.2-8.2 8.2 8.2 0 0 1-8.2 8.2zm0-20.8A12.6 12.6 0 1 0 37.6 25 12.7 12.7 0 0 0 25 12.4zm16-.5a3 3 0 0 1-2.9 3 3.1 3.1 0 0 1-3-3 3 3 0 0 1 3-2.9 2.9 2.9 0 0 1 2.9 2.9z"/></svg>