<svg xmlns="http://www.w3.org/2000/svg" width="50" height="50" viewBox="0 0 50 50"><path d="M25 .6h20.8a3.5 3.5 0 0 1 3.5 3 .7.7 0 0 1 .1.5v41.8a3.5 3.5 0 0 1-3.3 3.5H4.3a3.4 3.4 0 0 1-3.5-2.5 4.3 4.3 0 0 1-.2-1.1V4.2A3.4 3.4 0 0 1 4.1.7H25zM26.6 22v-2.6c0-.4-.1-.6-.5-.5h-6c-.5 0-.6.2-.6.6v22.2a.5.5 0 0 0 .6.6h6.2c.5 0 .6-.2.6-.6V30.5a16.4 16.4 0 0 1 .2-2.3c.3-1.6 1-2.9 2.7-3.3h1.6a3 3 0 0 1 3.2 2.4 15.3 15.3 0 0 1 .3 3v11.4c0 .4.1.6.6.6h6.2c.4 0 .5-.2.5-.6V29.3a21.1 21.1 0 0 0-.4-5c-.6-2.2-1.6-4.2-3.8-5.2a10.8 10.8 0 0 0-6.9-.5 7.9 7.9 0 0 0-4.5 3.4zm-11.5 8.5V19.4c0-.4-.1-.6-.5-.5H8.3c-.4-.1-.5.1-.5.5v22.3c0 .5.1.6.5.6h6.2c.6 0 .6 0 .6-.7zm-3.7-14.8a4.2 4.2 0 0 0 4.3-4.2 4.3 4.3 0 0 0-8.5 0 4.2 4.2 0 0 0 4.2 4.2z"/></svg>