<svg xmlns="http://www.w3.org/2000/svg" width="115.4" height="42" viewBox="0 0 115.4 42"><g fill="#141312"><path d="M4 .2l4.1 12.9h.1L12.4.2h3.9l-5.8 17H5.9L0 .2zm32.1 8.5a9.6 9.6 0 0 1-1 4.7 7.5 7.5 0 0 1-6.9 4 8 8 0 0 1-4.1-1 7.4 7.4 0 0 1-2.8-3 9.6 9.6 0 0 1-1.1-4.7A9.9 9.9 0 0 1 21.3 4a7.4 7.4 0 0 1 2.8-3 8 8 0 0 1 4.1-1 7.7 7.7 0 0 1 4 1 7.6 7.6 0 0 1 2.9 3 9.9 9.9 0 0 1 1 4.7zm-3.6 0a8.5 8.5 0 0 0-.5-3 4.9 4.9 0 0 0-1.5-1.9 4.7 4.7 0 0 0-4.6 0 4.9 4.9 0 0 0-1.5 1.9 8.5 8.5 0 0 0-.5 3 9.6 9.6 0 0 0 .5 3.1 4.5 4.5 0 0 0 1.5 1.8 4.1 4.1 0 0 0 4.6 0 4.5 4.5 0 0 0 1.5-1.8 9.6 9.6 0 0 0 .5-3.1zm10.3 8.5V.2h3.6v14h7.2v3zm24.3 0h-6V.2h6a10.3 10.3 0 0 1 4.5 1 7.4 7.4 0 0 1 2.8 3 8.8 8.8 0 0 1 1 4.5 9.5 9.5 0 0 1-1 4.6 7.4 7.4 0 0 1-2.9 2.9 8.7 8.7 0 0 1-4.4 1zm-2.4-3.1h2.2a6.8 6.8 0 0 0 2.7-.5 3.7 3.7 0 0 0 1.7-1.8 8.7 8.7 0 0 0 .5-3.1 8.7 8.7 0 0 0-.5-3.1 3.1 3.1 0 0 0-1.7-1.7 5.3 5.3 0 0 0-2.6-.6h-2.3zm17.8 3.1V.2H94v3h-7.9v4h7.3v3h-7.3v4H94v3zm32.9-17v17h-3.1l-7.4-10.7h-.1v10.7h-3.6V.2h3.1l7.4 10.7h.1V.2zM7.6 41.7h-6v-17h6.1a9 9 0 0 1 4.4 1.1 6.6 6.6 0 0 1 2.8 2.9 8.8 8.8 0 0 1 1 4.5 9.5 9.5 0 0 1-1 4.6 7.8 7.8 0 0 1-2.8 2.9 9.3 9.3 0 0 1-4.5 1zm-2.4-3.1h2.3a6.7 6.7 0 0 0 2.6-.5 3.7 3.7 0 0 0 1.7-1.8 8.7 8.7 0 0 0 .5-3.1 9.1 9.1 0 0 0-.5-3.1 3.5 3.5 0 0 0-1.7-1.7 5.3 5.3 0 0 0-2.6-.6H5.2zm17.7 3.1v-17h11.5v3h-7.9v4h7.3v3h-7.3v4.1h7.9v2.9zm28.7-12.1a1.9 1.9 0 0 0-.8-1.5 3.5 3.5 0 0 0-2.1-.6l-1.5.2a2.2 2.2 0 0 0-.9.7 1.7 1.7 0 0 0-.3 1 1.1 1.1 0 0 0 .2.8 1.7 1.7 0 0 0 .6.6l.8.4 1.1.3 1.5.4a11.7 11.7 0 0 1 2 .6 6.4 6.4 0 0 1 1.6 1.1 3.8 3.8 0 0 1 1.1 1.4 5.3 5.3 0 0 1 .4 1.9 5 5 0 0 1-.8 2.7 5.1 5.1 0 0 1-2.3 1.7 8.7 8.7 0 0 1-3.5.7 9.6 9.6 0 0 1-3.6-.7 5.5 5.5 0 0 1-2.4-1.8 6.2 6.2 0 0 1-.8-3.1h3.4a2.9 2.9 0 0 0 .5 1.4 2.7 2.7 0 0 0 1.2.9l1.6.2a3.7 3.7 0 0 0 1.6-.2 2.3 2.3 0 0 0 1.1-.8 1.4 1.4 0 0 0 0-2 2 2 0 0 0-1-.7l-1.5-.5-1.9-.4a8.4 8.4 0 0 1-3.4-1.7 3.8 3.8 0 0 1-1.2-3 5 5 0 0 1 .8-2.7 5.8 5.8 0 0 1 2.3-1.7 7.2 7.2 0 0 1 3.3-.7 6.7 6.7 0 0 1 3.3.7 4.8 4.8 0 0 1 2.2 1.7 4.3 4.3 0 0 1 .8 2.7zM70 24.7v17h-3.6v-17z"/><path d="M73.7 27.6H62.8v-2.9h10.9zm0 14.1H62.8v-2.9h10.9zm18.6-11.5a9.3 9.3 0 0 0-.5-1 2 2 0 0 0-.8-.8 1.9 1.9 0 0 0-1-.5 2.7 2.7 0 0 0-1.3-.2 4.4 4.4 0 0 0-2.3.6 4.7 4.7 0 0 0-1.5 1.9 6.7 6.7 0 0 0-.6 3 6.7 6.7 0 0 0 .6 3 3.2 3.2 0 0 0 1.5 1.9 3.7 3.7 0 0 0 2.3.7 4.6 4.6 0 0 0 2.1-.5 3 3 0 0 0 1.3-1.2 3.8 3.8 0 0 0 .5-1.9H89v-2.6h7.1v2.2a7.7 7.7 0 0 1-1 3.8 6.3 6.3 0 0 1-2.6 2.5 7.9 7.9 0 0 1-3.8.8 8.2 8.2 0 0 1-4.2-1 7.4 7.4 0 0 1-2.8-3 9.9 9.9 0 0 1-1-4.7 10.1 10.1 0 0 1 .6-3.6 8.8 8.8 0 0 1 1.7-2.8 8.5 8.5 0 0 1 2.5-1.7 8.1 8.1 0 0 1 3.1-.6 7.7 7.7 0 0 1 2.7.4 6.6 6.6 0 0 1 2.2 1.2 5.5 5.5 0 0 1 1.6 1.8 6.3 6.3 0 0 1 .8 2.3zm23.1-5.5v17h-3.1L104.9 31h-.1v10.7h-3.6v-17h3.1l7.4 10.7h.1V24.7z"/></g></svg>